<?xml version="1.0" encoding="UTF-8" standalone="no"?>
<!DOCTYPE svg PUBLIC "-//W3C//DTD SVG 1.1//EN"
 "http://www.w3.org/Graphics/SVG/1.1/DTD/svg11.dtd">
<!-- Generated by graphviz version 14.1.3 (20260303.0454)
 -->
<!-- Title: G Pages: 1 -->
<svg width="517pt" height="322pt"
 viewBox="0.00 0.00 517.00 322.00" xmlns="http://www.w3.org/2000/svg" xmlns:xlink="http://www.w3.org/1999/xlink">
<g id="graph0" class="graph" transform="scale(1 1) rotate(0) translate(18 304)">
<title>G</title>
<polygon fill="white" stroke="none" points="-18,18 -18,-304 498.92,-304 498.92,18 -18,18"/>
<text xml:space="preserve" text-anchor="middle" x="240.46" y="-264" font-family="Arial" font-size="20.00" fill="#005067">Commande de repas · gestion</text>
<g id="clust1" class="cluster">
<title>cluster_sys</title>
<polygon fill="white" stroke="#95b4bc" points="140.8,-8 140.8,-246 472.92,-246 472.92,-8 140.8,-8"/>
<text xml:space="preserve" text-anchor="middle" x="295.54" y="-224" font-family="Arial" font-size="20.00" fill="#005067">Système de commande de repas</text>
</g>
<!-- g -->
<g id="node1" class="node">
<title>g</title>
<polygon fill="white" stroke="none" stroke-width="1.5" points="117.8,-143 0,-143 0,-91 117.8,-91 117.8,-143"/>
<polygon fill="#edf4f5" stroke="none" points="1,-92 1,-142 116.8,-142 116.8,-92 1,-92"/>
<text xml:space="preserve" text-anchor="start" x="30.45" y="-119.6" font-family="Arial" font-weight="bold" font-size="16.00" fill="#122f37">«actor»</text>
<text xml:space="preserve" text-anchor="start" x="10" y="-103.6" font-family="Arial" font-weight="bold" font-size="16.00" fill="#122f37">Gestionnaire</text>
<polygon fill="none" stroke="#005067" points="0,-91 0,-143 117.8,-143 117.8,-91 0,-91"/>
</g>
<!-- stats -->
<g id="node2" class="node">
<title>stats</title>
<ellipse fill="white" stroke="#005067" stroke-width="1.5" cx="306.86" cy="-69" rx="142.06" ry="37.34"/>
<text xml:space="preserve" text-anchor="middle" x="306.86" y="-73.8" font-family="Arial" font-size="16.00" fill="#122f37">Consulter les statistiques</text>
<text xml:space="preserve" text-anchor="middle" x="306.86" y="-54.6" font-family="Arial" font-size="16.00" fill="#122f37">des commandes</text>
</g>
<!-- g&#45;&gt;stats -->
<g id="edge1" class="edge">
<title>g&#45;&gt;stats</title>
<path fill="none" stroke="#005067" stroke-width="1.4" d="M117.57,-105.75C139.72,-101.42 165.85,-96.32 191.48,-91.32"/>
</g>
<!-- stocks -->
<g id="node3" class="node">
<title>stocks</title>
<ellipse fill="white" stroke="#005067" stroke-width="1.5" cx="306.86" cy="-166" rx="131.35" ry="23.76"/>
<text xml:space="preserve" text-anchor="middle" x="306.86" y="-161.2" font-family="Arial" font-size="16.00" fill="#122f37">Commander les stocks</text>
</g>
<!-- g&#45;&gt;stocks -->
<g id="edge2" class="edge">
<title>g&#45;&gt;stocks</title>
<path fill="none" stroke="#005067" stroke-width="1.4" d="M117.57,-128.49C146.96,-134.34 183.36,-141.6 216.31,-148.16"/>
</g>
</g>
</svg>
