<?xml version="1.0" encoding="UTF-8" standalone="no"?>
<!DOCTYPE svg PUBLIC "-//W3C//DTD SVG 1.1//EN"
 "http://www.w3.org/Graphics/SVG/1.1/DTD/svg11.dtd">
<!-- Generated by graphviz version 14.1.3 (20260303.0454)
 -->
<!-- Title: G Pages: 1 -->
<svg width="632pt" height="176pt"
 viewBox="0.00 0.00 632.00 176.00" xmlns="http://www.w3.org/2000/svg" xmlns:xlink="http://www.w3.org/1999/xlink">
<g id="graph0" class="graph" transform="scale(1 1) rotate(0) translate(18 158)">
<title>G</title>
<polygon fill="white" stroke="none" points="-18,18 -18,-158 613.57,-158 613.57,18 -18,18"/>
<text xml:space="preserve" text-anchor="middle" x="297.78" y="-118" font-family="Arial" font-size="20.00" fill="#005067">Activités · une garde sur chaque sortie</text>
<!-- a -->
<g id="node1" class="node">
<title>a</title>
<path fill="white" stroke="#005067" stroke-width="1.5" d="M163.13,-72C163.13,-72 12,-72 12,-72 6,-72 0,-66 0,-60 0,-60 0,-48 0,-48 0,-42 6,-36 12,-36 12,-36 163.13,-36 163.13,-36 169.13,-36 175.13,-42 175.13,-48 175.13,-48 175.13,-60 175.13,-60 175.13,-66 169.13,-72 163.13,-72"/>
<text xml:space="preserve" text-anchor="middle" x="87.56" y="-49.2" font-family="Arial" font-size="16.00" fill="#122f37">Demander l’addition</text>
</g>
<!-- d -->
<g id="node2" class="node">
<title>d</title>
<polygon fill="white" stroke="#005067" stroke-width="1.5" points="239.25,-69.12 224.13,-54 239.25,-38.88 254.37,-54 239.25,-69.12"/>
</g>
<!-- a&#45;&gt;d -->
<g id="edge1" class="edge">
<title>a&#45;&gt;d</title>
<path fill="none" stroke="#005067" stroke-width="1.4" d="M175.63,-54C189.67,-54 203.12,-54 213.93,-54"/>
<polygon fill="#005067" stroke="#005067" stroke-width="1.4" points="221.71,-54 213.71,-57.6 219.42,-54.2 213.71,-54.2 213.71,-54 213.71,-53.8 219.42,-53.8 213.71,-50.4 221.71,-54"/>
</g>
<!-- b -->
<g id="node3" class="node">
<title>b</title>
<path fill="white" stroke="#005067" stroke-width="1.5" d="M573.79,-108C573.79,-108 475.14,-108 475.14,-108 469.14,-108 463.14,-102 463.14,-96 463.14,-96 463.14,-84 463.14,-84 463.14,-78 469.14,-72 475.14,-72 475.14,-72 573.79,-72 573.79,-72 579.79,-72 585.79,-78 585.79,-84 585.79,-84 585.79,-96 585.79,-96 585.79,-102 579.79,-108 573.79,-108"/>
<text xml:space="preserve" text-anchor="middle" x="524.47" y="-85.2" font-family="Arial" font-size="16.00" fill="#122f37">Régler la note</text>
</g>
<!-- d&#45;&gt;b -->
<g id="edge2" class="edge">
<title>d&#45;&gt;b</title>
<path fill="none" stroke="#005067" stroke-width="1.4" d="M253.53,-55.69C288.57,-60.14 385.48,-72.46 453.09,-81.05"/>
<polygon fill="#005067" stroke="#005067" stroke-width="1.4" points="460.74,-82.03 452.35,-84.59 458.44,-81.94 452.78,-81.22 452.8,-81.02 452.83,-80.82 458.49,-81.54 453.26,-77.45 460.74,-82.03"/>
<text xml:space="preserve" text-anchor="middle" x="353.87" y="-81.23" font-family="Arial" font-size="13.00" fill="#122f37">[prix ≤ somme disponible]</text>
</g>
<!-- c -->
<g id="node4" class="node">
<title>c</title>
<path fill="white" stroke="#005067" stroke-width="1.5" d="M583.57,-36C583.57,-36 465.37,-36 465.37,-36 459.37,-36 453.37,-30 453.37,-24 453.37,-24 453.37,-12 453.37,-12 453.37,-6 459.37,0 465.37,0 465.37,0 583.57,0 583.57,0 589.57,0 595.57,-6 595.57,-12 595.57,-12 595.57,-24 595.57,-24 595.57,-30 589.57,-36 583.57,-36"/>
<text xml:space="preserve" text-anchor="middle" x="524.47" y="-13.2" font-family="Arial" font-size="16.00" fill="#122f37">Faire la vaisselle</text>
</g>
<!-- d&#45;&gt;c -->
<g id="edge3" class="edge">
<title>d&#45;&gt;c</title>
<path fill="none" stroke="#005067" stroke-width="1.4" d="M249.21,-48.05C256.67,-43.44 267.75,-37.35 278.37,-34.4 332.01,-19.5 394.68,-15.53 443.22,-15.22"/>
<polygon fill="#005067" stroke="#005067" stroke-width="1.4" points="451.03,-15.21 443.04,-18.82 448.74,-15.41 443.03,-15.42 443.03,-15.22 443.03,-15.02 448.74,-15.01 443.02,-11.62 451.03,-15.21"/>
<text xml:space="preserve" text-anchor="middle" x="353.87" y="-38.3" font-family="Arial" font-size="13.00" fill="#122f37">[else]</text>
</g>
</g>
</svg>
