<?xml version="1.0" encoding="UTF-8" standalone="no"?>
<!DOCTYPE svg PUBLIC "-//W3C//DTD SVG 1.1//EN"
 "http://www.w3.org/Graphics/SVG/1.1/DTD/svg11.dtd">
<!-- Generated by graphviz version 14.1.3 (20260303.0454)
 -->
<!-- Title: G Pages: 1 -->
<svg width="583pt" height="355pt"
 viewBox="0.00 0.00 583.00 355.00" xmlns="http://www.w3.org/2000/svg" xmlns:xlink="http://www.w3.org/1999/xlink">
<g id="graph0" class="graph" transform="scale(1 1) rotate(0) translate(18 336.56)">
<title>G</title>
<polygon fill="white" stroke="none" points="-18,18 -18,-336.56 565.2,-336.56 565.2,18 -18,18"/>
<text xml:space="preserve" text-anchor="middle" x="273.6" y="-296.56" font-family="Arial" font-size="20.00" fill="#005067">Commande · consultation et création</text>
<!-- h0 -->
<g id="node1" class="node">
<title>h0</title>
<polygon fill="white" stroke="#005067" stroke-width="1.5" points="187.2,-286.56 0,-286.56 0,-246.96 187.2,-246.96 187.2,-286.56"/>
<text xml:space="preserve" text-anchor="middle" x="93.6" y="-261.96" font-family="Arial" font-size="16.00" fill="#122f37">client:Client</text>
</g>
<!-- p0_0 -->
<!-- h0&#45;&gt;p0_0 -->
<g id="edge1" class="edge">
<title>h0&#45;&gt;p0_0</title>
<path fill="none" stroke="#005067" stroke-width="1.4" stroke-dasharray="5,2" d="M93.6,-246.31C93.6,-233.4 93.6,-218.43 93.6,-214.48"/>
</g>
<!-- p0_1 -->
<!-- p0_0&#45;&gt;p0_1 -->
<g id="edge2" class="edge">
<title>p0_0&#45;&gt;p0_1</title>
<path fill="none" stroke="#005067" stroke-width="1.4" stroke-dasharray="5,2" d="M93.6,-212.56C93.6,-206.03 93.6,-167.04 93.6,-160.99"/>
</g>
<!-- p1_0 -->
<!-- p0_0&#45;&gt;p1_0 -->
<g id="edge11" class="edge">
<title>p0_0&#45;&gt;p1_0</title>
<path fill="none" stroke="#005067" stroke-width="1.4" d="M94.63,-213.48C113.49,-213.48 384.97,-213.48 442.81,-213.48"/>
<polygon fill="#005067" stroke="#005067" stroke-width="1.4" points="442.51,-216.28 450.51,-213.48 442.51,-210.68 442.51,-216.28"/>
</g>
<!-- p0_2 -->
<!-- p0_1&#45;&gt;p0_2 -->
<g id="edge3" class="edge">
<title>p0_1&#45;&gt;p0_2</title>
<path fill="none" stroke="#005067" stroke-width="1.4" stroke-dasharray="5,2" d="M93.6,-159.28C93.6,-152.75 93.6,-113.76 93.6,-107.71"/>
</g>
<!-- p0_3 -->
<!-- p0_2&#45;&gt;p0_3 -->
<g id="edge4" class="edge">
<title>p0_2&#45;&gt;p0_3</title>
<path fill="none" stroke="#005067" stroke-width="1.4" stroke-dasharray="5,2" d="M93.6,-106C93.6,-99.47 93.6,-60.48 93.6,-54.43"/>
</g>
<!-- p1_2 -->
<!-- p0_2&#45;&gt;p1_2 -->
<g id="edge13" class="edge">
<title>p0_2&#45;&gt;p1_2</title>
<path fill="none" stroke="#005067" stroke-width="1.4" d="M94.63,-106.92C113.49,-106.92 384.97,-106.92 442.81,-106.92"/>
<polygon fill="#005067" stroke="#005067" stroke-width="1.4" points="442.51,-109.72 450.51,-106.92 442.51,-104.12 442.51,-109.72"/>
</g>
<!-- p0_4 -->
<!-- p0_3&#45;&gt;p0_4 -->
<g id="edge5" class="edge">
<title>p0_3&#45;&gt;p0_4</title>
<path fill="none" stroke="#005067" stroke-width="1.4" stroke-dasharray="5,2" d="M93.6,-52.72C93.6,-46.19 93.6,-7.2 93.6,-1.15"/>
</g>
<!-- h1 -->
<g id="node7" class="node">
<title>h1</title>
<polygon fill="white" stroke="#005067" stroke-width="1.5" points="547.2,-286.56 360,-286.56 360,-246.96 547.2,-246.96 547.2,-286.56"/>
<text xml:space="preserve" text-anchor="middle" x="453.6" y="-261.96" font-family="Arial" font-size="16.00" fill="#122f37">système:Système</text>
</g>
<!-- h1&#45;&gt;p1_0 -->
<g id="edge6" class="edge">
<title>h1&#45;&gt;p1_0</title>
<path fill="none" stroke="#005067" stroke-width="1.4" stroke-dasharray="5,2" d="M453.6,-246.31C453.6,-233.4 453.6,-218.43 453.6,-214.48"/>
</g>
<!-- p1_1 -->
<!-- p1_0&#45;&gt;p1_1 -->
<g id="edge7" class="edge">
<title>p1_0&#45;&gt;p1_1</title>
<path fill="none" stroke="#005067" stroke-width="1.4" stroke-dasharray="5,2" d="M453.6,-212.56C453.6,-206.03 453.6,-167.04 453.6,-160.99"/>
</g>
<!-- p1_1&#45;&gt;p0_1 -->
<g id="edge12" class="edge">
<title>p1_1&#45;&gt;p0_1</title>
<path fill="none" stroke="#005067" stroke-width="1.4" stroke-dasharray="5,2" d="M452.57,-160.2C433.67,-160.2 161.08,-160.2 104.02,-160.2"/>
<polygon fill="#005067" stroke="#005067" stroke-width="1.4" points="96.28,-160.2 104.28,-156.6 98.57,-160 104.28,-160 104.28,-160.2 104.28,-160.4 98.57,-160.4 104.28,-163.8 96.28,-160.2"/>
</g>
<!-- p1_1&#45;&gt;p1_2 -->
<g id="edge8" class="edge">
<title>p1_1&#45;&gt;p1_2</title>
<path fill="none" stroke="#005067" stroke-width="1.4" stroke-dasharray="5,2" d="M453.6,-159.28C453.6,-152.75 453.6,-113.76 453.6,-107.71"/>
</g>
<!-- p1_3 -->
<!-- p1_2&#45;&gt;p1_3 -->
<g id="edge9" class="edge">
<title>p1_2&#45;&gt;p1_3</title>
<path fill="none" stroke="#005067" stroke-width="1.4" stroke-dasharray="5,2" d="M453.6,-106C453.6,-99.47 453.6,-60.48 453.6,-54.43"/>
</g>
<!-- p1_3&#45;&gt;p0_3 -->
<g id="edge14" class="edge">
<title>p1_3&#45;&gt;p0_3</title>
<path fill="none" stroke="#005067" stroke-width="1.4" stroke-dasharray="5,2" d="M452.57,-53.64C433.67,-53.64 161.08,-53.64 104.02,-53.64"/>
<polygon fill="#005067" stroke="#005067" stroke-width="1.4" points="96.28,-53.64 104.28,-50.04 98.57,-53.44 104.28,-53.44 104.28,-53.64 104.28,-53.84 98.57,-53.84 104.28,-57.24 96.28,-53.64"/>
</g>
<!-- p1_4 -->
<!-- p1_3&#45;&gt;p1_4 -->
<g id="edge10" class="edge">
<title>p1_3&#45;&gt;p1_4</title>
<path fill="none" stroke="#005067" stroke-width="1.4" stroke-dasharray="5,2" d="M453.6,-52.72C453.6,-46.19 453.6,-7.2 453.6,-1.15"/>
</g>
<!-- msg0 -->
<g id="node13" class="node">
<title>msg0</title>
<text xml:space="preserve" text-anchor="middle" x="273.6" y="-222.54" font-family="Arial" font-size="13.00" fill="#122f37">consulterMenu()</text>
</g>
<!-- msg1 -->
<g id="node14" class="node">
<title>msg1</title>
<text xml:space="preserve" text-anchor="middle" x="273.6" y="-169.26" font-family="Arial" font-size="13.00" fill="#122f37">menu</text>
</g>
<!-- msg2 -->
<g id="node15" class="node">
<title>msg2</title>
<text xml:space="preserve" text-anchor="middle" x="273.6" y="-115.98" font-family="Arial" font-size="13.00" fill="#122f37">passerCommande()</text>
</g>
<!-- msg3 -->
<g id="node16" class="node">
<title>msg3</title>
<text xml:space="preserve" text-anchor="middle" x="273.6" y="-62.7" font-family="Arial" font-size="13.00" fill="#122f37">commande créée</text>
</g>
</g>
</svg>
