<?xml version="1.0" encoding="UTF-8" standalone="no"?>
<!DOCTYPE svg PUBLIC "-//W3C//DTD SVG 1.1//EN"
 "http://www.w3.org/Graphics/SVG/1.1/DTD/svg11.dtd">
<!-- Generated by graphviz version 14.1.3 (20260303.0454)
 -->
<!-- Title: G Pages: 1 -->
<svg width="541pt" height="360pt"
 viewBox="0.00 0.00 541.00 360.00" xmlns="http://www.w3.org/2000/svg" xmlns:xlink="http://www.w3.org/1999/xlink">
<g id="graph0" class="graph" transform="scale(1 1) rotate(0) translate(18 341.96)">
<title>G</title>
<polygon fill="white" stroke="none" points="-18,18 -18,-341.96 522.72,-341.96 522.72,18 -18,18"/>
<text xml:space="preserve" text-anchor="middle" x="252.36" y="-301.96" font-family="Arial" font-size="20.00" fill="#005067">Séquence · alternative</text>
<g id="clust1" class="cluster">
<title>cluster_frame</title>
<polygon fill="white" stroke="#005067" points="0,-32.4 0,-249.12 504.72,-249.12 504.72,-32.4 0,-32.4"/>
<text xml:space="preserve" text-anchor="middle" x="18.56" y="-227.12" font-family="Arial" font-size="20.00" fill="#005067">alt</text>
</g>
<!-- h0 -->
<g id="node1" class="node">
<title>h0</title>
<polygon fill="white" stroke="#005067" stroke-width="1.5" points="125.23,-291.96 19.49,-291.96 19.49,-255.96 125.23,-255.96 125.23,-291.96"/>
<text xml:space="preserve" text-anchor="middle" x="72.36" y="-269.16" font-family="Arial" font-size="16.00" fill="#122f37">client:Client</text>
</g>
<!-- p00 -->
<!-- h0&#45;&gt;p00 -->
<g id="edge1" class="edge">
<title>h0&#45;&gt;p00</title>
<path fill="none" stroke="#005067" stroke-width="1.4" stroke-dasharray="5,2" d="M72.36,-255.42C72.36,-240.68 72.36,-221.83 72.36,-217.35"/>
</g>
<!-- h1 -->
<g id="node2" class="node">
<title>h1</title>
<polygon fill="white" stroke="#005067" stroke-width="1.5" points="498.12,-291.96 366.6,-291.96 366.6,-255.96 498.12,-255.96 498.12,-291.96"/>
<text xml:space="preserve" text-anchor="middle" x="432.36" y="-269.16" font-family="Arial" font-size="16.00" fill="#122f37">service:Service</text>
</g>
<!-- p10 -->
<!-- h1&#45;&gt;p10 -->
<g id="edge5" class="edge">
<title>h1&#45;&gt;p10</title>
<path fill="none" stroke="#005067" stroke-width="1.4" stroke-dasharray="5,2" d="M432.36,-255.42C432.36,-240.68 432.36,-221.83 432.36,-217.35"/>
</g>
<!-- p01 -->
<!-- p00&#45;&gt;p01 -->
<g id="edge2" class="edge">
<title>p00&#45;&gt;p01</title>
<path fill="none" stroke="#005067" stroke-width="1.4" stroke-dasharray="5,2" d="M72.36,-215.34C72.36,-207.27 72.36,-153.76 72.36,-145.44"/>
</g>
<!-- p00&#45;&gt;p10 -->
<g id="edge10" class="edge">
<title>p00&#45;&gt;p10</title>
<path fill="none" stroke="#005067" stroke-width="1.4" d="M73.39,-216.36C92.25,-216.36 363.73,-216.36 421.57,-216.36"/>
<polygon fill="#005067" stroke="#005067" stroke-width="1.4" points="421.27,-219.16 429.27,-216.36 421.27,-213.56 421.27,-219.16"/>
</g>
<!-- p02 -->
<!-- p01&#45;&gt;p02 -->
<g id="edge3" class="edge">
<title>p01&#45;&gt;p02</title>
<path fill="none" stroke="#005067" stroke-width="1.4" stroke-dasharray="5,2" d="M72.36,-143.34C72.36,-135.27 72.36,-81.76 72.36,-73.44"/>
</g>
<!-- p03 -->
<!-- p02&#45;&gt;p03 -->
<g id="edge4" class="edge">
<title>p02&#45;&gt;p03</title>
<path fill="none" stroke="#005067" stroke-width="1.4" stroke-dasharray="5,2" d="M72.36,-71.34C72.36,-63.27 72.36,-9.76 72.36,-1.44"/>
</g>
<!-- p12 -->
<!-- p02&#45;&gt;p12 -->
<g id="edge11" class="edge">
<title>p02&#45;&gt;p12</title>
<path fill="none" stroke="#005067" stroke-width="1.4" d="M73.39,-72.36C92.25,-72.36 363.73,-72.36 421.57,-72.36"/>
<polygon fill="#005067" stroke="#005067" stroke-width="1.4" points="421.27,-75.16 429.27,-72.36 421.27,-69.56 421.27,-75.16"/>
</g>
<!-- p11 -->
<!-- p10&#45;&gt;p11 -->
<g id="edge6" class="edge">
<title>p10&#45;&gt;p11</title>
<path fill="none" stroke="#005067" stroke-width="1.4" stroke-dasharray="5,2" d="M432.36,-215.34C432.36,-207.27 432.36,-153.76 432.36,-145.44"/>
</g>
<!-- p11&#45;&gt;p12 -->
<g id="edge7" class="edge">
<title>p11&#45;&gt;p12</title>
<path fill="none" stroke="#005067" stroke-width="1.4" stroke-dasharray="5,2" d="M432.36,-143.34C432.36,-135.27 432.36,-81.76 432.36,-73.44"/>
</g>
<!-- p13 -->
<!-- p12&#45;&gt;p13 -->
<g id="edge8" class="edge">
<title>p12&#45;&gt;p13</title>
<path fill="none" stroke="#005067" stroke-width="1.4" stroke-dasharray="5,2" d="M432.36,-71.34C432.36,-63.27 432.36,-9.76 432.36,-1.44"/>
</g>
<!-- cornerTop -->
<!-- cornerBottom -->
<!-- left -->
<!-- right -->
<!-- left&#45;&gt;right -->
<g id="edge9" class="edge">
<title>left&#45;&gt;right</title>
<path fill="none" stroke="#005067" stroke-width="1.4" stroke-dasharray="5,2" d="M1.18,-144.36C23.18,-144.36 482.08,-144.36 503.58,-144.36"/>
</g>
<!-- msg0 -->
<g id="node15" class="node">
<title>msg0</title>
<text xml:space="preserve" text-anchor="middle" x="252.36" y="-226.86" font-family="Arial" font-size="13.00" fill="#122f37">[disponible] réserver()</text>
</g>
<!-- msg2 -->
<g id="node16" class="node">
<title>msg2</title>
<text xml:space="preserve" text-anchor="middle" x="252.36" y="-82.86" font-family="Arial" font-size="13.00" fill="#122f37">[else] signalerIndisponibilité()</text>
</g>
</g>
</svg>
