<?xml version="1.0" encoding="UTF-8" standalone="no"?>
<!DOCTYPE svg PUBLIC "-//W3C//DTD SVG 1.1//EN"
 "http://www.w3.org/Graphics/SVG/1.1/DTD/svg11.dtd">
<!-- Generated by graphviz version 14.1.3 (20260303.0454)
 -->
<!-- Title: G Pages: 1 -->
<svg width="729pt" height="314pt"
 viewBox="0.00 0.00 729.00 314.00" xmlns="http://www.w3.org/2000/svg" xmlns:xlink="http://www.w3.org/1999/xlink">
<g id="graph0" class="graph" transform="scale(1 1) rotate(0) translate(18 296.2)">
<title>G</title>
<polygon fill="white" stroke="none" points="-18,18 -18,-296.2 710.69,-296.2 710.69,18 -18,18"/>
<text xml:space="preserve" text-anchor="middle" x="346.34" y="-256.2" font-family="Arial" font-size="20.00" fill="#005067">Objets · un instantané du modèle</text>
<!-- c -->
<g id="node1" class="node">
<title>c</title>
<polygon fill="white" stroke="none" stroke-width="1.5" points="295.38,-76.4 108.8,-76.4 108.8,0 295.38,0 295.38,-76.4"/>
<polygon fill="#edf4f5" stroke="none" points="109.8,-38.2 109.8,-75.4 294.38,-75.4 294.38,-38.2 109.8,-38.2"/>
<text xml:space="preserve" text-anchor="start" x="151.86" y="-53" font-family="Arial" font-weight="bold" text-decoration="underline" font-size="16.00" fill="#122f37">client1:Client</text>
<text xml:space="preserve" text-anchor="start" x="118.8" y="-13.2" font-family="Arial" font-size="16.00" fill="#122f37">nom = &quot;Sophie Dupont&quot;</text>
<polygon fill="#005067" stroke="#005067" points="108.8,-38.2 108.8,-38.2 295.38,-38.2 295.38,-38.2 108.8,-38.2"/>
<polygon fill="none" stroke="#005067" points="108.8,0 108.8,-76.4 295.38,-76.4 295.38,0 108.8,0"/>
</g>
<!-- o -->
<g id="node2" class="node">
<title>o</title>
<polygon fill="white" stroke="none" stroke-width="1.5" points="692.69,-76.4 486.87,-76.4 486.87,0 692.69,0 692.69,-76.4"/>
<polygon fill="#edf4f5" stroke="none" points="487.87,-38.2 487.87,-75.4 691.69,-75.4 691.69,-38.2 487.87,-38.2"/>
<text xml:space="preserve" text-anchor="start" x="496.87" y="-53" font-family="Arial" font-weight="bold" text-decoration="underline" font-size="16.00" fill="#122f37">commande1:Commande</text>
<text xml:space="preserve" text-anchor="start" x="496.87" y="-13.2" font-family="Arial" font-size="16.00" fill="#122f37">statut = &quot;En préparation&quot;</text>
<polygon fill="#005067" stroke="#005067" points="486.87,-38.2 486.87,-38.2 692.69,-38.2 692.69,-38.2 486.87,-38.2"/>
<polygon fill="none" stroke="#005067" points="486.87,0 486.87,-76.4 692.69,-76.4 692.69,0 486.87,0"/>
</g>
<!-- c&#45;&gt;o -->
<g id="edge1" class="edge">
<title>c&#45;&gt;o</title>
<path fill="none" stroke="#005067" stroke-width="1.4" d="M294.98,-38.2C352.8,-38.2 427.48,-38.2 487.08,-38.2"/>
<text xml:space="preserve" text-anchor="middle" x="445.52" y="-42.1" font-family="Arial" font-size="13.00" fill="#122f37">passe</text>
</g>
<!-- n -->
<g id="node3" class="node">
<title>n</title>
<polygon fill="white" stroke="none" stroke-width="1.5" points="404.18,-246.2 0,-246.2 0,-112.2 404.18,-112.2 404.18,-246.2"/>
<polygon fill="#edf4f5" stroke="none" points="1,-208 1,-245.2 403.18,-245.2 403.18,-208 1,-208"/>
<text xml:space="preserve" text-anchor="start" x="173.19" y="-222.8" font-family="Arial" font-weight="bold" font-size="16.00" fill="#122f37">Lecture</text>
<text xml:space="preserve" text-anchor="start" x="10" y="-183" font-family="Arial" font-size="16.00" fill="#122f37">Nom d’instance et type soulignés</text>
<text xml:space="preserve" text-anchor="start" x="10" y="-163.8" font-family="Arial" font-size="16.00" fill="#122f37">Attributs : valeurs concrètes</text>
<text xml:space="preserve" text-anchor="start" x="10" y="-144.6" font-family="Arial" font-size="16.00" fill="#122f37">Trait : lien entre deux instances</text>
<text xml:space="preserve" text-anchor="start" x="10" y="-125.4" font-family="Arial" font-size="16.00" fill="#122f37">Pas de messages ni de multiplicités sur cet instantané</text>
<polygon fill="#005067" stroke="#005067" points="0,-208 0,-208 404.18,-208 404.18,-208 0,-208"/>
<polygon fill="none" stroke="#005067" points="0,-112.2 0,-246.2 404.18,-246.2 404.18,-112.2 0,-112.2"/>
</g>
</g>
</svg>
