<?xml version="1.0" encoding="UTF-8" standalone="no"?>
<!DOCTYPE svg PUBLIC "-//W3C//DTD SVG 1.1//EN"
 "http://www.w3.org/Graphics/SVG/1.1/DTD/svg11.dtd">
<!-- Generated by graphviz version 14.1.3 (20260303.0454)
 -->
<!-- Title: G Pages: 1 -->
<svg width="738pt" height="452pt"
 viewBox="0.00 0.00 738.00 452.00" xmlns="http://www.w3.org/2000/svg" xmlns:xlink="http://www.w3.org/1999/xlink">
<g id="graph0" class="graph" transform="scale(1 1) rotate(0) translate(18 434)">
<title>G</title>
<polygon fill="white" stroke="none" points="-18,18 -18,-434 719.65,-434 719.65,18 -18,18"/>
<text xml:space="preserve" text-anchor="middle" x="350.82" y="-394" font-family="Arial" font-size="20.00" fill="#005067">Commande · traitement parallèle</text>
<g id="clust1" class="cluster">
<title>cluster_composite</title>
<path fill="white" stroke="#95b4bc" d="M20,-8C20,-8 681.65,-8 681.65,-8 687.65,-8 693.65,-14 693.65,-20 693.65,-20 693.65,-364 693.65,-364 693.65,-370 687.65,-376 681.65,-376 681.65,-376 20,-376 20,-376 14,-376 8,-370 8,-364 8,-364 8,-20 8,-20 8,-14 14,-8 20,-8"/>
<text xml:space="preserve" text-anchor="middle" x="75.47" y="-354" font-family="Arial" font-size="20.00" fill="#005067">En traitement</text>
</g>
<g id="clust2" class="cluster">
<title>cluster_prep</title>
<polygon fill="white" stroke="#95b4bc" stroke-dasharray="5,2" points="32,-32 32,-164 669.65,-164 669.65,-32 32,-32"/>
<text xml:space="preserve" text-anchor="middle" x="130.61" y="-142" font-family="Arial" font-size="20.00" fill="#005067">Région : préparation</text>
</g>
<g id="clust3" class="cluster">
<title>cluster_pay</title>
<polygon fill="white" stroke="#95b4bc" stroke-dasharray="5,2" points="32,-188 32,-320 669.65,-320 669.65,-188 32,-188"/>
<text xml:space="preserve" text-anchor="middle" x="121.16" y="-298" font-family="Arial" font-size="20.00" fill="#005067">Région : paiement</text>
</g>
<!-- i1 -->
<g id="node1" class="node">
<title>i1</title>
<ellipse fill="#122f37" stroke="#122f37" stroke-width="1.5" cx="63.2" cy="-82" rx="7.2" ry="7.2"/>
</g>
<!-- a -->
<g id="node2" class="node">
<title>a</title>
<path fill="white" stroke="#005067" stroke-width="1.5" d="M268.27,-108.4C268.27,-108.4 131.4,-108.4 131.4,-108.4 125.4,-108.4 119.4,-102.4 119.4,-96.4 119.4,-96.4 119.4,-67.6 119.4,-67.6 119.4,-61.6 125.4,-55.6 131.4,-55.6 131.4,-55.6 268.27,-55.6 268.27,-55.6 274.27,-55.6 280.27,-61.6 280.27,-67.6 280.27,-67.6 280.27,-96.4 280.27,-96.4 280.27,-102.4 274.27,-108.4 268.27,-108.4"/>
<text xml:space="preserve" text-anchor="middle" x="199.83" y="-86.8" font-family="Arial" font-size="16.00" fill="#122f37">En préparation</text>
<text xml:space="preserve" text-anchor="middle" x="199.83" y="-67.6" font-family="Arial" font-size="16.00" fill="#122f37">do / préparerPlats()</text>
</g>
<!-- i1&#45;&gt;a -->
<g id="edge1" class="edge">
<title>i1&#45;&gt;a</title>
<path fill="none" stroke="#005067" stroke-width="1.4" d="M71.06,-82C79.03,-82 93.17,-82 109.2,-82"/>
<polygon fill="#005067" stroke="#005067" stroke-width="1.4" points="117.12,-82 109.12,-85.6 114.83,-82.2 109.12,-82.2 109.12,-82 109.12,-81.8 114.83,-81.8 109.12,-78.4 117.12,-82"/>
</g>
<!-- b -->
<g id="node3" class="node">
<title>b</title>
<path fill="white" stroke="#005067" stroke-width="1.5" d="M543.12,-108C543.12,-108 468.5,-108 468.5,-108 462.5,-108 456.5,-102 456.5,-96 456.5,-96 456.5,-84 456.5,-84 456.5,-78 462.5,-72 468.5,-72 468.5,-72 543.12,-72 543.12,-72 549.12,-72 555.12,-78 555.12,-84 555.12,-84 555.12,-96 555.12,-96 555.12,-102 549.12,-108 543.12,-108"/>
<text xml:space="preserve" text-anchor="middle" x="505.81" y="-85.2" font-family="Arial" font-size="16.00" fill="#122f37">Plats prêts</text>
</g>
<!-- a&#45;&gt;b -->
<g id="edge2" class="edge">
<title>a&#45;&gt;b</title>
<path fill="none" stroke="#005067" stroke-width="1.4" d="M280.7,-84.1C332.7,-85.47 399.37,-87.23 446.43,-88.46"/>
<polygon fill="#005067" stroke="#005067" stroke-width="1.4" points="454.16,-88.67 446.07,-92.06 451.86,-88.81 446.16,-88.66 446.16,-88.46 446.17,-88.26 451.87,-88.41 446.26,-84.86 454.16,-88.67"/>
<text xml:space="preserve" text-anchor="middle" x="358.82" y="-91.31" font-family="Arial" font-size="13.00" fill="#122f37">platsPréparés()</text>
</g>
<!-- f1 -->
<g id="node4" class="node">
<title>f1</title>
<ellipse fill="#122f37" stroke="#122f37" stroke-width="1.5" cx="634.45" cy="-90" rx="7.2" ry="7.2"/>
<ellipse fill="none" stroke="#122f37" stroke-width="1.5" cx="634.45" cy="-90" rx="11.2" ry="11.2"/>
</g>
<!-- b&#45;&gt;f1 -->
<g id="edge3" class="edge">
<title>b&#45;&gt;f1</title>
<path fill="none" stroke="#005067" stroke-width="1.4" d="M555.77,-90C575.68,-90 597.58,-90 613.04,-90"/>
<polygon fill="#005067" stroke="#005067" stroke-width="1.4" points="620.9,-90 612.9,-93.6 618.61,-90.2 612.9,-90.2 612.9,-90 612.9,-89.8 618.61,-89.8 612.9,-86.4 620.9,-90"/>
</g>
<!-- i2 -->
<g id="node5" class="node">
<title>i2</title>
<ellipse fill="#122f37" stroke="#122f37" stroke-width="1.5" cx="63.2" cy="-246" rx="7.2" ry="7.2"/>
</g>
<!-- c -->
<g id="node6" class="node">
<title>c</title>
<path fill="white" stroke="#005067" stroke-width="1.5" d="M249.6,-264C249.6,-264 150.07,-264 150.07,-264 144.07,-264 138.07,-258 138.07,-252 138.07,-252 138.07,-240 138.07,-240 138.07,-234 144.07,-228 150.07,-228 150.07,-228 249.6,-228 249.6,-228 255.6,-228 261.6,-234 261.6,-240 261.6,-240 261.6,-252 261.6,-252 261.6,-258 255.6,-264 249.6,-264"/>
<text xml:space="preserve" text-anchor="middle" x="199.83" y="-241.2" font-family="Arial" font-size="16.00" fill="#122f37">En vérification</text>
</g>
<!-- i2&#45;&gt;c -->
<g id="edge4" class="edge">
<title>i2&#45;&gt;c</title>
<path fill="none" stroke="#005067" stroke-width="1.4" d="M71.06,-246C82.04,-246 104.67,-246 127.88,-246"/>
<polygon fill="#005067" stroke="#005067" stroke-width="1.4" points="135.78,-246 127.78,-249.6 133.48,-246.2 127.78,-246.2 127.78,-246 127.78,-245.8 133.48,-245.8 127.78,-242.4 135.78,-246"/>
</g>
<!-- d -->
<g id="node7" class="node">
<title>d</title>
<path fill="white" stroke="#005067" stroke-width="1.5" d="M562.25,-264C562.25,-264 449.37,-264 449.37,-264 443.37,-264 437.37,-258 437.37,-252 437.37,-252 437.37,-240 437.37,-240 437.37,-234 443.37,-228 449.37,-228 449.37,-228 562.25,-228 562.25,-228 568.25,-228 574.25,-234 574.25,-240 574.25,-240 574.25,-252 574.25,-252 574.25,-258 568.25,-264 562.25,-264"/>
<text xml:space="preserve" text-anchor="middle" x="505.81" y="-241.2" font-family="Arial" font-size="16.00" fill="#122f37">Paiement validé</text>
</g>
<!-- c&#45;&gt;d -->
<g id="edge5" class="edge">
<title>c&#45;&gt;d</title>
<path fill="none" stroke="#005067" stroke-width="1.4" d="M261.98,-246C309.64,-246 376.12,-246 427.47,-246"/>
<polygon fill="#005067" stroke="#005067" stroke-width="1.4" points="435.17,-246 427.17,-249.6 432.88,-246.2 427.17,-246.2 427.17,-246 427.17,-245.8 432.88,-245.8 427.17,-242.4 435.17,-246"/>
<text xml:space="preserve" text-anchor="middle" x="358.82" y="-249.9" font-family="Arial" font-size="13.00" fill="#122f37">paiementAccepté()</text>
</g>
<!-- f2 -->
<g id="node8" class="node">
<title>f2</title>
<ellipse fill="#122f37" stroke="#122f37" stroke-width="1.5" cx="634.45" cy="-246" rx="7.2" ry="7.2"/>
<ellipse fill="none" stroke="#122f37" stroke-width="1.5" cx="634.45" cy="-246" rx="11.2" ry="11.2"/>
</g>
<!-- d&#45;&gt;f2 -->
<g id="edge6" class="edge">
<title>d&#45;&gt;f2</title>
<path fill="none" stroke="#005067" stroke-width="1.4" d="M574.95,-246C589,-246 602.73,-246 613.36,-246"/>
<polygon fill="#005067" stroke="#005067" stroke-width="1.4" points="621.14,-246 613.14,-249.6 618.84,-246.2 613.14,-246.2 613.14,-246 613.14,-245.8 618.84,-245.8 613.14,-242.4 621.14,-246"/>
</g>
</g>
</svg>
