<?xml version="1.0" encoding="UTF-8" standalone="no"?>
<!DOCTYPE svg PUBLIC "-//W3C//DTD SVG 1.1//EN"
 "http://www.w3.org/Graphics/SVG/1.1/DTD/svg11.dtd">
<!-- Generated by graphviz version 14.1.3 (20260303.0454)
 -->
<!-- Title: G Pages: 1 -->
<svg width="628pt" height="471pt"
 viewBox="0.00 0.00 628.00 471.00" xmlns="http://www.w3.org/2000/svg" xmlns:xlink="http://www.w3.org/1999/xlink">
<g id="graph0" class="graph" transform="scale(1 1) rotate(0) translate(18 453.2)">
<title>G</title>
<polygon fill="white" stroke="none" points="-18,18 -18,-453.2 610.48,-453.2 610.48,18 -18,18"/>
<text xml:space="preserve" text-anchor="middle" x="296.24" y="-413.2" font-family="Arial" font-size="20.00" fill="#005067">Entité&#45;association · vols et départs</text>
<!-- v -->
<g id="node1" class="node">
<title>v</title>
<polygon fill="white" stroke="none" stroke-width="1.5" points="592.48,-403.2 430.2,-403.2 430.2,-298 592.48,-298 592.48,-403.2"/>
<polygon fill="#edf4f5" stroke="none" points="431.2,-365 431.2,-402.2 591.48,-402.2 591.48,-365 431.2,-365"/>
<text xml:space="preserve" text-anchor="start" x="498.9" y="-379.8" font-family="Arial" font-weight="bold" font-size="16.00" fill="#122f37">Vol</text>
<text xml:space="preserve" text-anchor="start" x="440.2" y="-342.6" font-family="Arial" text-decoration="underline" font-size="16.00" fill="#122f37">numéroVol</text>
<text xml:space="preserve" text-anchor="start" x="440.2" y="-326.6" font-family="Arial" font-size="16.00" fill="#122f37">heureDépartPrévue</text>
<text xml:space="preserve" text-anchor="start" x="440.2" y="-310.6" font-family="Arial" font-size="16.00" fill="#122f37">heureArrivéePrévue</text>
<polygon fill="#005067" stroke="#005067" points="430.2,-365 430.2,-365 592.48,-365 592.48,-365 430.2,-365"/>
<polygon fill="none" stroke="#005067" points="430.2,-298 430.2,-403.2 592.48,-403.2 592.48,-298 430.2,-298"/>
</g>
<!-- d -->
<g id="node2" class="node">
<title>d</title>
<polygon fill="white" stroke="none" stroke-width="1.5" points="170.3,-254.2 0,-254.2 0,-149 170.3,-149 170.3,-254.2"/>
<polygon fill="#edf4f5" stroke="none" points="1,-216 1,-253.2 169.3,-253.2 169.3,-216 1,-216"/>
<text xml:space="preserve" text-anchor="start" x="59.81" y="-230.8" font-family="Arial" font-weight="bold" font-size="16.00" fill="#122f37">Départ</text>
<text xml:space="preserve" text-anchor="start" x="10" y="-193.6" font-family="Arial" text-decoration="underline" font-size="16.00" fill="#122f37">numéroDépart</text>
<text xml:space="preserve" text-anchor="start" x="10" y="-177.6" font-family="Arial" font-size="16.00" fill="#122f37">date</text>
<text xml:space="preserve" text-anchor="start" x="10" y="-161.6" font-family="Arial" font-size="16.00" fill="#122f37">heureDépartEffective</text>
<polygon fill="#005067" stroke="#005067" points="0,-216 0,-216 170.3,-216 170.3,-216 0,-216"/>
<polygon fill="none" stroke="#005067" points="0,-149 0,-254.2 170.3,-254.2 170.3,-149 0,-149"/>
</g>
<!-- cor -->
<g id="node5" class="node">
<title>cor</title>
<ellipse fill="white" stroke="#005067" stroke-width="1.5" cx="300.25" cy="-317.6" rx="82.95" ry="23.76"/>
<text xml:space="preserve" text-anchor="middle" x="300.25" y="-312.8" font-family="Arial" font-size="16.00" fill="#122f37">correspondre</text>
</g>
<!-- d&#45;&gt;cor -->
<g id="edge1" class="edge">
<title>d&#45;&gt;cor</title>
<path fill="none" stroke="#005067" stroke-width="1.4" d="M170.07,-247.28C201.05,-264.14 234.71,-282.47 259.9,-296.18"/>
<text xml:space="preserve" text-anchor="middle" x="179.1" y="-235.58" font-family="Arial" font-size="13.00" fill="#122f37">1,1</text>
</g>
<!-- uti -->
<g id="node6" class="node">
<title>uti</title>
<ellipse fill="white" stroke="#005067" stroke-width="1.5" cx="300.25" cy="-201.6" rx="48.98" ry="23.76"/>
<text xml:space="preserve" text-anchor="middle" x="300.25" y="-196.8" font-family="Arial" font-size="16.00" fill="#122f37">utiliser</text>
</g>
<!-- d&#45;&gt;uti -->
<g id="edge3" class="edge">
<title>d&#45;&gt;uti</title>
<path fill="none" stroke="#005067" stroke-width="1.4" d="M170.07,-201.6C197.44,-201.6 226.9,-201.6 250.76,-201.6"/>
<text xml:space="preserve" text-anchor="middle" x="179.1" y="-189.9" font-family="Arial" font-size="13.00" fill="#122f37">1,1</text>
</g>
<!-- ass -->
<g id="node7" class="node">
<title>ass</title>
<ellipse fill="white" stroke="#005067" stroke-width="1.5" cx="300.25" cy="-85.6" rx="54.02" ry="23.76"/>
<text xml:space="preserve" text-anchor="middle" x="300.25" y="-80.8" font-family="Arial" font-size="16.00" fill="#122f37">assurer</text>
</g>
<!-- d&#45;&gt;ass -->
<g id="edge5" class="edge">
<title>d&#45;&gt;ass</title>
<path fill="none" stroke="#005067" stroke-width="1.4" d="M170.07,-155.92C203.14,-137.91 239.27,-118.25 264.89,-104.3"/>
<text xml:space="preserve" text-anchor="middle" x="179.1" y="-144.22" font-family="Arial" font-size="13.00" fill="#122f37">1,n</text>
</g>
<!-- a -->
<g id="node3" class="node">
<title>a</title>
<polygon fill="white" stroke="none" stroke-width="1.5" points="590.27,-262.2 432.42,-262.2 432.42,-141 590.27,-141 590.27,-262.2"/>
<polygon fill="#edf4f5" stroke="none" points="433.42,-224 433.42,-261.2 589.27,-261.2 589.27,-224 433.42,-224"/>
<text xml:space="preserve" text-anchor="start" x="489.12" y="-238.8" font-family="Arial" font-weight="bold" font-size="16.00" fill="#122f37">Avion</text>
<text xml:space="preserve" text-anchor="start" x="442.42" y="-201.6" font-family="Arial" text-decoration="underline" font-size="16.00" fill="#122f37">numéroAvion</text>
<text xml:space="preserve" text-anchor="start" x="442.42" y="-185.6" font-family="Arial" font-size="16.00" fill="#122f37">dateMiseEnService</text>
<text xml:space="preserve" text-anchor="start" x="442.42" y="-169.6" font-family="Arial" font-size="16.00" fill="#122f37">modèle</text>
<text xml:space="preserve" text-anchor="start" x="470.88" y="-153.6" font-family="Arial" font-size="16.00" fill="#122f37">propriétaire</text>
<polygon fill="#005067" stroke="#005067" points="432.42,-224 432.42,-224 590.27,-224 590.27,-224 432.42,-224"/>
<polygon fill="none" stroke="#005067" points="432.42,-141 432.42,-262.2 590.27,-262.2 590.27,-141 432.42,-141"/>
</g>
<!-- p -->
<g id="node4" class="node">
<title>p</title>
<polygon fill="white" stroke="none" stroke-width="1.5" points="568.48,-105.2 454.21,-105.2 454.21,0 568.48,0 568.48,-105.2"/>
<polygon fill="#edf4f5" stroke="none" points="455.21,-67 455.21,-104.2 567.48,-104.2 567.48,-67 455.21,-67"/>
<text xml:space="preserve" text-anchor="start" x="489.56" y="-81.8" font-family="Arial" font-weight="bold" font-size="16.00" fill="#122f37">Pilote</text>
<text xml:space="preserve" text-anchor="start" x="464.21" y="-44.6" font-family="Arial" text-decoration="underline" font-size="16.00" fill="#122f37">numéroPilote</text>
<text xml:space="preserve" text-anchor="start" x="464.21" y="-28.6" font-family="Arial" font-size="16.00" fill="#122f37">nom</text>
<text xml:space="preserve" text-anchor="start" x="490.88" y="-12.6" font-family="Arial" font-size="16.00" fill="#122f37">grade</text>
<polygon fill="#005067" stroke="#005067" points="454.21,-67 454.21,-67 568.48,-67 568.48,-67 454.21,-67"/>
<polygon fill="none" stroke="#005067" points="454.21,0 454.21,-105.2 568.48,-105.2 568.48,0 454.21,0"/>
</g>
<!-- cor&#45;&gt;v -->
<g id="edge2" class="edge">
<title>cor&#45;&gt;v</title>
<path fill="none" stroke="#005067" stroke-width="1.4" d="M374.09,-329.1C392.24,-331.96 411.8,-335.05 430.27,-337.96"/>
<text xml:space="preserve" text-anchor="middle" x="421.24" y="-326.26" font-family="Arial" font-size="13.00" fill="#122f37">0,n</text>
</g>
<!-- uti&#45;&gt;a -->
<g id="edge4" class="edge">
<title>uti&#45;&gt;a</title>
<path fill="none" stroke="#005067" stroke-width="1.4" d="M349.75,-201.6C374.36,-201.6 404.85,-201.6 432.63,-201.6"/>
<text xml:space="preserve" text-anchor="middle" x="423.6" y="-189.9" font-family="Arial" font-size="13.00" fill="#122f37">0,n</text>
</g>
<!-- ass&#45;&gt;p -->
<g id="edge6" class="edge">
<title>ass&#45;&gt;p</title>
<path fill="none" stroke="#005067" stroke-width="1.4" d="M351.87,-77.61C382.81,-72.73 422.43,-66.48 454.31,-61.44"/>
<text xml:space="preserve" text-anchor="middle" x="445.27" y="-49.74" font-family="Arial" font-size="13.00" fill="#122f37">0,n</text>
</g>
</g>
</svg>
