<?xml version="1.0" encoding="UTF-8" standalone="no"?>
<!DOCTYPE svg PUBLIC "-//W3C//DTD SVG 1.1//EN"
 "http://www.w3.org/Graphics/SVG/1.1/DTD/svg11.dtd">
<!-- Generated by graphviz version 14.1.3 (20260303.0454)
 -->
<!-- Title: G Pages: 1 -->
<svg width="444pt" height="334pt"
 viewBox="0.00 0.00 444.00 334.00" xmlns="http://www.w3.org/2000/svg" xmlns:xlink="http://www.w3.org/1999/xlink">
<g id="graph0" class="graph" transform="scale(1 1) rotate(0) translate(18 315.8)">
<title>G</title>
<polygon fill="white" stroke="none" points="-18,18 -18,-315.8 426.09,-315.8 426.09,18 -18,18"/>
<text xml:space="preserve" text-anchor="middle" x="204.05" y="-275.8" font-family="Arial" font-size="20.00" fill="#005067">Clé&#45;valeur · une valeur par clé</text>
<!-- u -->
<g id="node1" class="node">
<title>u</title>
<polygon fill="white" stroke="none" stroke-width="1.5" points="92.94,-77 3.55,-77 3.55,-37.8 92.94,-37.8 92.94,-77"/>
<polygon fill="#edf4f5" stroke="none" points="4.55,-38.8 4.55,-76 91.94,-76 91.94,-38.8 4.55,-38.8"/>
<text xml:space="preserve" text-anchor="start" x="13.55" y="-53.6" font-family="Arial" font-weight="bold" font-size="16.00" fill="#122f37">user_123</text>
<polygon fill="none" stroke="#005067" points="3.55,-37.8 3.55,-77 92.94,-77 92.94,-37.8 3.55,-37.8"/>
</g>
<!-- uv -->
<g id="node2" class="node">
<title>uv</title>
<polygon fill="white" stroke="none" stroke-width="1.5" points="408.09,-114.8 143.49,-114.8 143.49,0 408.09,0 408.09,-114.8"/>
<polygon fill="#edf4f5" stroke="none" points="144.49,-76.6 144.49,-113.8 407.09,-113.8 407.09,-76.6 144.49,-76.6"/>
<text xml:space="preserve" text-anchor="start" x="251.34" y="-91.4" font-family="Arial" font-weight="bold" font-size="16.00" fill="#122f37">Valeur</text>
<text xml:space="preserve" text-anchor="start" x="153.49" y="-51.6" font-family="Arial" font-size="16.00" fill="#122f37">{ name: &quot;John Doe&quot;,</text>
<text xml:space="preserve" text-anchor="start" x="153.49" y="-32.4" font-family="Arial" font-size="16.00" fill="#122f37"> &#160;email: &quot;john.doe@example.com&quot;,</text>
<text xml:space="preserve" text-anchor="start" x="239.76" y="-13.2" font-family="Arial" font-size="16.00" fill="#122f37"> &#160;age: 30 }</text>
<polygon fill="#005067" stroke="#005067" points="143.49,-76.6 143.49,-76.6 408.09,-76.6 408.09,-76.6 143.49,-76.6"/>
<polygon fill="none" stroke="#005067" points="143.49,0 143.49,-114.8 408.09,-114.8 408.09,0 143.49,0"/>
</g>
<!-- u&#45;&gt;uv -->
<g id="edge1" class="edge">
<title>u&#45;&gt;uv</title>
<path fill="none" stroke="#005067" stroke-width="1.4" d="M92.73,-57.4C107.71,-57.4 125.35,-57.4 143.65,-57.4"/>
</g>
<!-- o -->
<g id="node3" class="node">
<title>o</title>
<polygon fill="white" stroke="none" stroke-width="1.5" points="96.49,-228 0,-228 0,-188.8 96.49,-188.8 96.49,-228"/>
<polygon fill="#edf4f5" stroke="none" points="1,-189.8 1,-227 95.49,-227 95.49,-189.8 1,-189.8"/>
<text xml:space="preserve" text-anchor="start" x="10" y="-204.6" font-family="Arial" font-weight="bold" font-size="16.00" fill="#122f37">order_001</text>
<polygon fill="none" stroke="#005067" points="0,-188.8 0,-228 96.49,-228 96.49,-188.8 0,-188.8"/>
</g>
<!-- ov -->
<g id="node4" class="node">
<title>ov</title>
<polygon fill="white" stroke="none" stroke-width="1.5" points="354.19,-265.8 197.4,-265.8 197.4,-151 354.19,-151 354.19,-265.8"/>
<polygon fill="#edf4f5" stroke="none" points="198.4,-227.6 198.4,-264.8 353.19,-264.8 353.19,-227.6 198.4,-227.6"/>
<text xml:space="preserve" text-anchor="start" x="251.34" y="-242.4" font-family="Arial" font-weight="bold" font-size="16.00" fill="#122f37">Valeur</text>
<text xml:space="preserve" text-anchor="start" x="207.4" y="-202.6" font-family="Arial" font-size="16.00" fill="#122f37">{ product: &quot;Laptop&quot;,</text>
<text xml:space="preserve" text-anchor="start" x="207.4" y="-183.4" font-family="Arial" font-size="16.00" fill="#122f37"> &#160;quantity: 2,</text>
<text xml:space="preserve" text-anchor="start" x="213.09" y="-164.2" font-family="Arial" font-size="16.00" fill="#122f37"> &#160;unitPrice: 1500 }</text>
<polygon fill="#005067" stroke="#005067" points="197.4,-227.6 197.4,-227.6 354.19,-227.6 354.19,-227.6 197.4,-227.6"/>
<polygon fill="none" stroke="#005067" points="197.4,-151 197.4,-265.8 354.19,-265.8 354.19,-151 197.4,-151"/>
</g>
<!-- o&#45;&gt;ov -->
<g id="edge2" class="edge">
<title>o&#45;&gt;ov</title>
<path fill="none" stroke="#005067" stroke-width="1.4" d="M96.25,-208.4C125.56,-208.4 163.98,-208.4 197.66,-208.4"/>
</g>
</g>
</svg>
